<svg width="190" height="56" viewBox="0 0 190 56" fill="none" xmlns="http://www.w3.org/2000/svg">
<g clip-path="url(#clip0_84_97)">
<path d="M20.6138 54.1846L17.1182 55.9784C16.9985 56.0256 16.9961 55.9929 16.8826 55.928L12.0148 53.2177C11.738 53.0637 11.4613 52.8867 11.1685 52.7649L11.1372 52.7521C11.1998 52.0847 11.171 51.4058 11.1716 50.7359L11.1698 34.2514C11.1698 33.6609 11.1452 33.0638 11.2078 32.4764C11.0937 32.3861 10.8654 32.3345 10.7242 32.2782L9.55147 31.7841C5.20903 29.7497 1.91784 25.7797 0.629714 21.2131C-2.31352 10.7773 5.42321 0.488178 16.2811 0.0165509C25.4484 -0.378089 33.4072 6.47627 33.9682 15.599C34.3842 22.3643 30.7494 28.6228 24.6309 31.6926C23.9792 32.0193 23.298 32.3467 22.5996 32.5619C22.5499 32.7777 22.5868 33.0759 22.5868 33.3002L22.5966 41.7422H27.2287L27.2244 45.7111L22.7297 45.745L22.7169 53.1068L20.6138 54.1852V54.1846ZM16.6549 8.89382C14.3462 9.06719 12.4051 10.0044 10.8758 11.7654C8.17252 14.8771 8.77454 19.7897 11.8841 22.394C13.4981 23.7458 15.3729 24.3308 17.4723 24.2235C24.3787 23.9138 27.4619 15.3929 22.2541 10.7773C20.7236 9.42061 18.6843 8.83259 16.6543 8.89442L16.6549 8.89382Z" fill="#375F0F"/>
</g>
<path d="M58.2666 17.1045H62.9102L71.2305 25.4541L79.5508 17.1045H84.1943V40H79.5508V23.5352L71.2305 31.5479L62.9102 23.5352V40H58.2666V17.1045ZM98.5205 17.1045H103.442L114.517 40H109.639L107.808 36.1475H94.4336L92.6611 40H87.7686L98.5205 17.1045ZM105.977 32.3242L101.025 21.9238L96.2061 32.3242H105.977ZM113.667 43.7939C114.341 43.3838 114.917 42.9541 115.396 42.5049C115.884 42.0557 116.284 41.5576 116.597 41.0107C116.909 40.4736 117.139 39.873 117.285 39.209C117.432 38.5352 117.505 37.7734 117.505 36.9238V17.1045H122.148V36.0889C122.148 37.1045 122.104 38.0322 122.017 38.8721C121.929 39.7021 121.782 40.4639 121.577 41.1572C121.382 41.8604 121.113 42.5049 120.771 43.0908C120.439 43.6768 120.024 44.2334 119.526 44.7607C119.038 45.2881 118.457 45.7959 117.783 46.2842C117.119 46.7725 116.348 47.2656 115.469 47.7637L113.667 43.7939ZM126.748 28.4863C126.748 26.7578 127.065 25.1758 127.7 23.7402C128.335 22.3047 129.224 21.0742 130.366 20.0488C131.519 19.0137 132.896 18.2129 134.497 17.6465C136.108 17.0801 137.891 16.7969 139.844 16.7969C141.787 16.7969 143.564 17.0801 145.176 17.6465C146.787 18.2129 148.164 19.0137 149.307 20.0488C150.459 21.0742 151.353 22.3047 151.987 23.7402C152.622 25.1758 152.939 26.7578 152.939 28.4863C152.939 30.2246 152.622 31.8213 151.987 33.2764C151.353 34.7217 150.459 35.9668 149.307 37.0117C148.164 38.0566 146.787 38.8721 145.176 39.458C143.564 40.0342 141.787 40.3223 139.844 40.3223C137.891 40.3223 136.108 40.0342 134.497 39.458C132.896 38.8721 131.519 38.0566 130.366 37.0117C129.224 35.9668 128.335 34.7217 127.7 33.2764C127.065 31.8213 126.748 30.2246 126.748 28.4863ZM131.392 28.4863C131.392 29.668 131.602 30.7324 132.021 31.6797C132.451 32.627 133.042 33.4375 133.794 34.1113C134.556 34.7754 135.449 35.2881 136.475 35.6494C137.51 36.0107 138.633 36.1914 139.844 36.1914C141.055 36.1914 142.173 36.0107 143.198 35.6494C144.233 35.2881 145.127 34.7754 145.879 34.1113C146.631 33.4375 147.222 32.627 147.651 31.6797C148.081 30.7324 148.296 29.668 148.296 28.4863C148.296 27.3047 148.081 26.2451 147.651 25.3076C147.222 24.3701 146.631 23.5791 145.879 22.9346C145.127 22.2803 144.233 21.7822 143.198 21.4404C142.173 21.0986 141.055 20.9277 139.844 20.9277C138.633 20.9277 137.51 21.0986 136.475 21.4404C135.449 21.7822 134.556 22.2803 133.794 22.9346C133.042 23.5791 132.451 24.3701 132.021 25.3076C131.602 26.2451 131.392 27.3047 131.392 28.4863ZM158.096 17.1045H169.741C171.499 17.1045 173.022 17.29 174.312 17.6611C175.601 18.0225 176.67 18.5498 177.52 19.2432C178.369 19.9365 178.999 20.7812 179.409 21.7773C179.829 22.7734 180.039 23.9014 180.039 25.1611C180.039 26.0107 179.937 26.8213 179.731 27.5928C179.526 28.3545 179.209 29.0576 178.779 29.7021C178.359 30.3467 177.827 30.9229 177.183 31.4307C176.538 31.9287 175.781 32.3438 174.912 32.6758L179.893 40H174.209L169.902 33.4961H169.771L162.739 33.4814V40H158.096V17.1045ZM169.858 29.4678C170.737 29.4678 171.504 29.3652 172.158 29.1602C172.822 28.9551 173.374 28.667 173.813 28.2959C174.263 27.9248 174.595 27.4756 174.81 26.9482C175.034 26.4111 175.146 25.8154 175.146 25.1611C175.146 23.8818 174.707 22.8955 173.828 22.2021C172.949 21.499 171.626 21.1475 169.858 21.1475H162.739V29.4678H169.858Z" fill="#375F0F"/>
<defs>
<clipPath id="clip0_84_97">
<rect width="34" height="56" fill="white"/>
</clipPath>
</defs>
</svg>
